<svg width="102" height="38" viewBox="0 0 102 38" fill="none" xmlns="http://www.w3.org/2000/svg">
<g filter="url(#filter0_d_1_35)">
<mask id="path-1-outside-1_1_35" maskUnits="userSpaceOnUse" x="3.84399" y="-0.459961" width="94" height="31" fill="black">
<rect fill="white" x="3.84399" y="-0.459961" width="94" height="31"/>
<path d="M4.99999 23.236C4.99999 21.1734 6.03133 19.6207 8.09399 18.578C10.1793 17.5354 12.8653 17.0027 16.152 16.98V16.198C16.152 15.2687 16.05 14.5434 15.846 14.022C15.6647 13.5007 15.3133 13.1154 14.792 12.866C14.2933 12.594 13.5567 12.458 12.582 12.458C11.4713 12.458 10.474 12.6054 9.58999 12.9C8.70599 13.172 7.78799 13.5347 6.83599 13.988L5.78199 11.812C6.12199 11.5174 6.68866 11.166 7.48199 10.758C8.29799 10.35 9.26133 9.99871 10.372 9.70404C11.4827 9.38671 12.6273 9.22804 13.806 9.22804C15.5513 9.22804 16.9113 9.4547 17.886 9.90804C18.8833 10.3614 19.5973 11.0867 20.028 12.084C20.4587 13.0814 20.674 14.4187 20.674 16.096V26.5H22.51V28.404C22.0567 28.5174 21.4107 28.6307 20.572 28.744C19.7333 28.8574 18.9967 28.914 18.362 28.914C17.5913 28.914 17.07 28.8007 16.798 28.574C16.5487 28.3474 16.424 27.8827 16.424 27.18V26.262C15.812 26.942 15.0187 27.554 14.044 28.098C13.0693 28.642 11.97 28.914 10.746 28.914C9.70333 28.914 8.73999 28.6987 7.85599 28.268C6.99466 27.8147 6.30333 27.1687 5.78199 26.33C5.26066 25.4687 4.99999 24.4374 4.99999 23.236ZM12.922 26.092C13.398 26.092 13.942 25.956 14.554 25.684C15.166 25.3894 15.6987 25.038 16.152 24.63V19.054C14.112 19.054 12.582 19.4054 11.562 20.108C10.5647 20.788 10.066 21.672 10.066 22.76C10.066 23.848 10.3153 24.6754 10.814 25.242C11.3353 25.8087 12.038 26.092 12.922 26.092ZM28.5358 12.866L26.3598 12.254V9.90804L32.0038 9.19404H32.1058L32.9558 9.87404V11.2L32.9218 12.016C33.7151 11.268 34.7465 10.622 36.0158 10.078C37.2851 9.53404 38.5658 9.26204 39.8578 9.26204C41.2405 9.26204 42.3171 9.5227 43.0878 10.044C43.8811 10.5427 44.4478 11.336 44.7878 12.424C45.1278 13.512 45.2978 14.9854 45.2978 16.844V26.228L47.3718 26.5V28.54H38.5998V26.5L40.4358 26.228V16.844C40.4358 15.6654 40.3565 14.7474 40.1978 14.09C40.0391 13.41 39.7445 12.9227 39.3138 12.628C38.9058 12.3107 38.3165 12.152 37.5458 12.152C36.2538 12.152 34.8711 12.7074 33.3978 13.818V26.194L35.4378 26.5V28.54H26.5638V26.5L28.5358 26.194V12.866ZM57.4864 28.846C56.0584 28.846 55.0044 28.5174 54.3244 27.86C53.6444 27.2027 53.3044 26.16 53.3044 24.732V12.254H51.0944V10.486C51.2757 10.418 51.6044 10.3047 52.0804 10.146C52.5564 9.96471 52.9191 9.81737 53.1684 9.70404C53.5537 9.40937 53.8824 8.89937 54.1544 8.17404C54.3584 7.69804 54.7324 6.51937 55.2764 4.63804H57.9964L58.1324 9.63604H63.3344V12.254H58.1664V21.808C58.1664 23.0774 58.2004 23.9727 58.2684 24.494C58.3364 25.0154 58.4837 25.3554 58.7104 25.514C58.9371 25.65 59.3337 25.718 59.9004 25.718C60.4671 25.718 61.0564 25.6614 61.6684 25.548C62.2804 25.412 62.7904 25.2534 63.1984 25.072L63.8444 26.976C63.2097 27.452 62.2804 27.8827 61.0564 28.268C59.8324 28.6534 58.6424 28.846 57.4864 28.846ZM71.6993 6.54204C70.8833 6.54204 70.2373 6.30404 69.7613 5.82804C69.2853 5.35204 69.0473 4.74004 69.0473 3.99204C69.0473 3.1307 69.3193 2.4167 69.8633 1.85004C70.4073 1.28337 71.1326 1.00004 72.0393 1.00004C72.946 1.00004 73.6373 1.24937 74.1133 1.74804C74.5893 2.22404 74.8273 2.82471 74.8273 3.55004C74.8273 4.4567 74.5553 5.18204 74.0113 5.72604C73.4673 6.27004 72.708 6.54204 71.7333 6.54204H71.6993ZM69.8973 12.866L67.4833 12.22V9.94204L73.7053 9.19404H73.7733L74.7253 9.87404V26.228L77.0033 26.5V28.54H67.5173V26.5L69.8973 26.194V12.866ZM80.9984 19.19C80.9984 17.2407 81.3837 15.5067 82.1544 13.988C82.9477 12.4694 84.0697 11.2907 85.5204 10.452C86.9937 9.5907 88.7051 9.16004 90.6544 9.16004C91.5611 9.16004 92.3431 9.22804 93.0004 9.36404C93.6577 9.50004 94.3944 9.68137 95.2104 9.90804L96.1964 10.18L95.9924 15.994H93.0344L92.1844 12.254C92.0484 11.6647 91.3797 11.37 90.1784 11.37C88.9091 11.37 87.9117 11.9254 87.1864 13.036C86.4837 14.1467 86.1211 15.8807 86.0984 18.238C86.0984 20.7314 86.5291 22.6467 87.3904 23.984C88.2517 25.2987 89.3964 25.956 90.8244 25.956C92.5471 25.956 94.1337 25.4914 95.5844 24.562L96.3664 26.33C95.7771 26.9647 94.8704 27.554 93.6464 28.098C92.4451 28.642 91.1417 28.914 89.7364 28.914C86.8351 28.914 84.6477 28.0187 83.1744 26.228C81.7237 24.4374 80.9984 22.0914 80.9984 19.19Z"/>
</mask>
<path d="M4.99999 23.236C4.99999 21.1734 6.03133 19.6207 8.09399 18.578C10.1793 17.5354 12.8653 17.0027 16.152 16.98V16.198C16.152 15.2687 16.05 14.5434 15.846 14.022C15.6647 13.5007 15.3133 13.1154 14.792 12.866C14.2933 12.594 13.5567 12.458 12.582 12.458C11.4713 12.458 10.474 12.6054 9.58999 12.9C8.70599 13.172 7.78799 13.5347 6.83599 13.988L5.78199 11.812C6.12199 11.5174 6.68866 11.166 7.48199 10.758C8.29799 10.35 9.26133 9.99871 10.372 9.70404C11.4827 9.38671 12.6273 9.22804 13.806 9.22804C15.5513 9.22804 16.9113 9.4547 17.886 9.90804C18.8833 10.3614 19.5973 11.0867 20.028 12.084C20.4587 13.0814 20.674 14.4187 20.674 16.096V26.5H22.51V28.404C22.0567 28.5174 21.4107 28.6307 20.572 28.744C19.7333 28.8574 18.9967 28.914 18.362 28.914C17.5913 28.914 17.07 28.8007 16.798 28.574C16.5487 28.3474 16.424 27.8827 16.424 27.18V26.262C15.812 26.942 15.0187 27.554 14.044 28.098C13.0693 28.642 11.97 28.914 10.746 28.914C9.70333 28.914 8.73999 28.6987 7.85599 28.268C6.99466 27.8147 6.30333 27.1687 5.78199 26.33C5.26066 25.4687 4.99999 24.4374 4.99999 23.236ZM12.922 26.092C13.398 26.092 13.942 25.956 14.554 25.684C15.166 25.3894 15.6987 25.038 16.152 24.63V19.054C14.112 19.054 12.582 19.4054 11.562 20.108C10.5647 20.788 10.066 21.672 10.066 22.76C10.066 23.848 10.3153 24.6754 10.814 25.242C11.3353 25.8087 12.038 26.092 12.922 26.092ZM28.5358 12.866L26.3598 12.254V9.90804L32.0038 9.19404H32.1058L32.9558 9.87404V11.2L32.9218 12.016C33.7151 11.268 34.7465 10.622 36.0158 10.078C37.2851 9.53404 38.5658 9.26204 39.8578 9.26204C41.2405 9.26204 42.3171 9.5227 43.0878 10.044C43.8811 10.5427 44.4478 11.336 44.7878 12.424C45.1278 13.512 45.2978 14.9854 45.2978 16.844V26.228L47.3718 26.5V28.54H38.5998V26.5L40.4358 26.228V16.844C40.4358 15.6654 40.3565 14.7474 40.1978 14.09C40.0391 13.41 39.7445 12.9227 39.3138 12.628C38.9058 12.3107 38.3165 12.152 37.5458 12.152C36.2538 12.152 34.8711 12.7074 33.3978 13.818V26.194L35.4378 26.5V28.54H26.5638V26.5L28.5358 26.194V12.866ZM57.4864 28.846C56.0584 28.846 55.0044 28.5174 54.3244 27.86C53.6444 27.2027 53.3044 26.16 53.3044 24.732V12.254H51.0944V10.486C51.2757 10.418 51.6044 10.3047 52.0804 10.146C52.5564 9.96471 52.9191 9.81737 53.1684 9.70404C53.5537 9.40937 53.8824 8.89937 54.1544 8.17404C54.3584 7.69804 54.7324 6.51937 55.2764 4.63804H57.9964L58.1324 9.63604H63.3344V12.254H58.1664V21.808C58.1664 23.0774 58.2004 23.9727 58.2684 24.494C58.3364 25.0154 58.4837 25.3554 58.7104 25.514C58.9371 25.65 59.3337 25.718 59.9004 25.718C60.4671 25.718 61.0564 25.6614 61.6684 25.548C62.2804 25.412 62.7904 25.2534 63.1984 25.072L63.8444 26.976C63.2097 27.452 62.2804 27.8827 61.0564 28.268C59.8324 28.6534 58.6424 28.846 57.4864 28.846ZM71.6993 6.54204C70.8833 6.54204 70.2373 6.30404 69.7613 5.82804C69.2853 5.35204 69.0473 4.74004 69.0473 3.99204C69.0473 3.1307 69.3193 2.4167 69.8633 1.85004C70.4073 1.28337 71.1326 1.00004 72.0393 1.00004C72.946 1.00004 73.6373 1.24937 74.1133 1.74804C74.5893 2.22404 74.8273 2.82471 74.8273 3.55004C74.8273 4.4567 74.5553 5.18204 74.0113 5.72604C73.4673 6.27004 72.708 6.54204 71.7333 6.54204H71.6993ZM69.8973 12.866L67.4833 12.22V9.94204L73.7053 9.19404H73.7733L74.7253 9.87404V26.228L77.0033 26.5V28.54H67.5173V26.5L69.8973 26.194V12.866ZM80.9984 19.19C80.9984 17.2407 81.3837 15.5067 82.1544 13.988C82.9477 12.4694 84.0697 11.2907 85.5204 10.452C86.9937 9.5907 88.7051 9.16004 90.6544 9.16004C91.5611 9.16004 92.3431 9.22804 93.0004 9.36404C93.6577 9.50004 94.3944 9.68137 95.2104 9.90804L96.1964 10.18L95.9924 15.994H93.0344L92.1844 12.254C92.0484 11.6647 91.3797 11.37 90.1784 11.37C88.9091 11.37 87.9117 11.9254 87.1864 13.036C86.4837 14.1467 86.1211 15.8807 86.0984 18.238C86.0984 20.7314 86.5291 22.6467 87.3904 23.984C88.2517 25.2987 89.3964 25.956 90.8244 25.956C92.5471 25.956 94.1337 25.4914 95.5844 24.562L96.3664 26.33C95.7771 26.9647 94.8704 27.554 93.6464 28.098C92.4451 28.642 91.1417 28.914 89.7364 28.914C86.8351 28.914 84.6477 28.0187 83.1744 26.228C81.7237 24.4374 80.9984 22.0914 80.9984 19.19Z" fill="#A06056"/>
<path d="M8.09399 18.578L7.64678 17.6836L7.64286 17.6856L8.09399 18.578ZM16.152 16.98L16.1589 17.98L17.152 17.9732V16.98H16.152ZM15.846 14.022L14.9015 14.3506L14.9078 14.3686L14.9148 14.3864L15.846 14.022ZM14.792 12.866L14.3131 13.7439L14.3365 13.7567L14.3605 13.7682L14.792 12.866ZM9.58999 12.9L9.88408 13.8558L9.89519 13.8524L9.90622 13.8487L9.58999 12.9ZM6.83599 13.988L5.93601 14.424L6.36905 15.318L7.26593 14.8909L6.83599 13.988ZM5.78199 11.812L5.12706 11.0563L4.54794 11.5583L4.88201 12.248L5.78199 11.812ZM7.48199 10.758L7.03475 9.86355L7.02465 9.86875L7.48199 10.758ZM10.372 9.70404L10.6284 10.6706L10.6376 10.6682L10.6467 10.6656L10.372 9.70404ZM17.886 9.90804L17.4642 10.8148L17.4722 10.8184L17.886 9.90804ZM20.028 12.084L19.1099 12.4805L20.028 12.084ZM20.674 26.5H19.674V27.5H20.674V26.5ZM22.51 26.5H23.51V25.5H22.51V26.5ZM22.51 28.404L22.7525 29.3742L23.51 29.1848V28.404H22.51ZM20.572 28.744L20.4381 27.753L20.572 28.744ZM16.798 28.574L16.1253 29.314L16.1413 29.3285L16.1578 29.3423L16.798 28.574ZM16.424 26.262H17.424V23.6561L15.6807 25.5931L16.424 26.262ZM14.044 28.098L13.5566 27.2248L14.044 28.098ZM7.85599 28.268L7.39025 29.153L7.40403 29.1602L7.41803 29.167L7.85599 28.268ZM5.78199 26.33L4.92643 26.8479L4.93271 26.858L5.78199 26.33ZM14.554 25.684L14.9601 26.5979L14.9741 26.5917L14.9878 26.585L14.554 25.684ZM16.152 24.63L16.821 25.3733L17.152 25.0754V24.63H16.152ZM16.152 19.054H17.152V18.054H16.152V19.054ZM11.562 20.108L12.1253 20.9343L12.1293 20.9315L11.562 20.108ZM10.814 25.242L10.0633 25.9027L10.0706 25.911L10.0781 25.9191L10.814 25.242ZM4.99999 23.236H5.99999C5.99999 22.3797 6.2112 21.6729 6.60648 21.0778C7.00594 20.4764 7.63162 19.9323 8.54513 19.4705L8.09399 18.578L7.64286 17.6856C6.4937 18.2665 5.57238 19.02 4.94051 19.9712C4.30446 20.9288 3.99999 22.0297 3.99999 23.236H4.99999ZM8.09399 18.578L8.54121 19.4725C10.4455 18.5203 12.9665 18.002 16.1589 17.98L16.152 16.98L16.1451 15.9801C12.7642 16.0034 9.91313 16.5504 7.64678 17.6836L8.09399 18.578ZM16.152 16.98H17.152V16.198H16.152H15.152V16.98H16.152ZM16.152 16.198H17.152C17.152 15.2153 17.0469 14.3469 16.7772 13.6576L15.846 14.022L14.9148 14.3864C15.0531 14.7399 15.152 15.3221 15.152 16.198H16.152ZM15.846 14.022L16.7905 13.6935C16.517 12.9073 15.9729 12.3223 15.2235 11.9639L14.792 12.866L14.3605 13.7682C14.6538 13.9084 14.8123 14.0941 14.9015 14.3506L15.846 14.022ZM14.792 12.866L15.2708 11.9881C14.5549 11.5977 13.6196 11.458 12.582 11.458V12.458V13.458C13.4938 13.458 14.0317 13.5904 14.3131 13.7439L14.792 12.866ZM12.582 12.458V11.458C11.3839 11.458 10.2771 11.6169 9.27377 11.9514L9.58999 12.9L9.90622 13.8487C10.6708 13.5938 11.5588 13.458 12.582 13.458V12.458ZM9.58999 12.9L9.29591 11.9443C8.35949 12.2324 7.39603 12.6138 6.40606 13.0852L6.83599 13.988L7.26593 14.8909C8.17996 14.4556 9.0525 14.1117 9.88408 13.8558L9.58999 12.9ZM6.83599 13.988L7.73598 13.5521L6.68198 11.3761L5.78199 11.812L4.88201 12.248L5.93601 14.424L6.83599 13.988ZM5.78199 11.812L6.43692 12.5677C6.68311 12.3544 7.16196 12.0471 7.93934 11.6473L7.48199 10.758L7.02465 9.86875C6.21536 10.285 5.56088 10.6804 5.12706 11.0563L5.78199 11.812ZM7.48199 10.758L7.92921 11.6525C8.67094 11.2816 9.56752 10.9521 10.6284 10.6706L10.372 9.70404L10.1156 8.73748C8.95514 9.04534 7.92505 9.41848 7.03478 9.86361L7.48199 10.758ZM10.372 9.70404L10.6467 10.6656C11.6662 10.3743 12.7183 10.228 13.806 10.228V9.22804V8.22804C12.5363 8.22804 11.2991 8.39913 10.0973 8.74251L10.372 9.70404ZM13.806 9.22804V10.228C15.4858 10.228 16.679 10.4495 17.4643 10.8148L17.886 9.90804L18.3077 9.00132C17.1437 8.45989 15.6168 8.22804 13.806 8.22804V9.22804ZM17.886 9.90804L17.4722 10.8184C18.2456 11.1699 18.7786 11.7132 19.1099 12.4805L20.028 12.084L20.9461 11.6876C20.416 10.4602 19.5211 9.5528 18.2998 8.99767L17.886 9.90804ZM20.028 12.084L19.1099 12.4805C19.4653 13.3033 19.674 14.4885 19.674 16.096H20.674H21.674C21.674 14.3489 21.4521 12.8594 20.9461 11.6876L20.028 12.084ZM20.674 16.096H19.674V26.5H20.674H21.674V16.096H20.674ZM20.674 26.5V27.5H22.51V26.5V25.5H20.674V26.5ZM22.51 26.5H21.51V28.404H22.51H23.51V26.5H22.51ZM22.51 28.404L22.2675 27.4339C21.8676 27.5339 21.2644 27.6414 20.4381 27.753L20.572 28.744L20.7059 29.735C21.5569 29.62 22.2457 29.5009 22.7525 29.3742L22.51 28.404ZM20.572 28.744L20.4381 27.753C19.6302 27.8622 18.9399 27.914 18.362 27.914V28.914V29.914C19.0534 29.914 19.8365 29.8525 20.7059 29.735L20.572 28.744ZM18.362 28.914V27.914C18.0195 27.914 17.773 27.8883 17.6054 27.8519C17.429 27.8135 17.4036 27.777 17.4382 27.8058L16.798 28.574L16.1578 29.3423C16.4644 29.5978 16.8357 29.7312 17.1806 29.8062C17.5343 29.8831 17.9338 29.914 18.362 29.914V28.914ZM16.798 28.574L17.4707 27.8341C17.5362 27.8937 17.5163 27.9191 17.4833 27.7964C17.4515 27.6776 17.424 27.4801 17.424 27.18H16.424H15.424C15.424 27.5826 15.4589 27.9688 15.5517 28.3147C15.6434 28.6567 15.8105 29.0278 16.1253 29.314L16.798 28.574ZM16.424 27.18H17.424V26.262H16.424H15.424V27.18H16.424ZM16.424 26.262L15.6807 25.5931C15.1563 26.1757 14.4557 26.723 13.5566 27.2248L14.044 28.098L14.5314 28.9712C15.5816 28.3851 16.4676 27.7084 17.1673 26.931L16.424 26.262ZM14.044 28.098L13.5566 27.2248C12.745 27.6778 11.8163 27.914 10.746 27.914V28.914V29.914C12.1237 29.914 13.3936 29.6062 14.5314 28.9712L14.044 28.098ZM10.746 28.914V27.914C9.84571 27.914 9.03334 27.7293 8.29396 27.369L7.85599 28.268L7.41803 29.167C8.44665 29.6682 9.56094 29.914 10.746 29.914V28.914ZM7.85599 28.268L8.32174 27.3831C7.6201 27.0138 7.0602 26.4921 6.63128 25.8021L5.78199 26.33L4.93271 26.858C5.54645 27.8453 6.36923 28.6156 7.39025 29.153L7.85599 28.268ZM5.78199 26.33L6.63749 25.8122C6.22753 25.1349 5.99999 24.2903 5.99999 23.236H4.99999H3.99999C3.99999 24.5844 4.29379 25.8025 4.92649 26.8478L5.78199 26.33ZM12.922 26.092V27.092C13.5827 27.092 14.2687 26.9051 14.9601 26.5979L14.554 25.684L14.1479 24.7702C13.6153 25.0069 13.2133 25.092 12.922 25.092V26.092ZM14.554 25.684L14.9878 26.585C15.6757 26.2538 16.2896 25.8515 16.821 25.3733L16.152 24.63L15.483 23.8867C15.1077 24.2245 14.6563 24.5249 14.1202 24.783L14.554 25.684ZM16.152 24.63H17.152V19.054H16.152H15.152V24.63H16.152ZM16.152 19.054V18.054C14.0282 18.054 12.2581 18.4142 10.9947 19.2845L11.562 20.108L12.1293 20.9315C12.9059 20.3966 14.1958 20.054 16.152 20.054V19.054ZM11.562 20.108L10.9987 19.2818C9.76316 20.1242 9.06599 21.3011 9.06599 22.76H10.066H11.066C11.066 22.043 11.3662 21.4519 12.1253 20.9343L11.562 20.108ZM10.066 22.76H9.06599C9.06599 23.9855 9.34566 25.0872 10.0633 25.9027L10.814 25.242L11.5647 24.5814C11.285 24.2636 11.066 23.7106 11.066 22.76H10.066ZM10.814 25.242L10.0781 25.9191C10.8175 26.7229 11.8039 27.092 12.922 27.092V26.092V25.092C12.2721 25.092 11.8531 24.8945 11.5499 24.565L10.814 25.242ZM28.5358 12.866H29.5358V12.1085L28.8066 11.9034L28.5358 12.866ZM26.3598 12.254H25.3598V13.0116L26.0891 13.2167L26.3598 12.254ZM26.3598 9.90804L26.2343 8.91595L25.3598 9.02657V9.90804H26.3598ZM32.0038 9.19404V8.19404H31.9408L31.8783 8.20195L32.0038 9.19404ZM32.1058 9.19404L32.7305 8.41317L32.4566 8.19404H32.1058V9.19404ZM32.9558 9.87404H33.9558V9.39341L33.5805 9.09317L32.9558 9.87404ZM32.9558 11.2L33.9549 11.2417L33.9558 11.2209V11.2H32.9558ZM32.9218 12.016L31.9227 11.9744L31.8204 14.4289L33.6078 12.7436L32.9218 12.016ZM43.0878 10.044L42.5275 10.8723L42.5414 10.8817L42.5556 10.8907L43.0878 10.044ZM44.7878 12.424L45.7423 12.1258L45.7423 12.1258L44.7878 12.424ZM45.2978 26.228H44.2978V27.1055L45.1678 27.2195L45.2978 26.228ZM47.3718 26.5H48.3718V25.6226L47.5018 25.5085L47.3718 26.5ZM47.3718 28.54V29.54H48.3718V28.54H47.3718ZM38.5998 28.54H37.5998V29.54H38.5998V28.54ZM38.5998 26.5L38.4533 25.5108L37.5998 25.6373V26.5H38.5998ZM40.4358 26.228L40.5824 27.2172L41.4358 27.0908V26.228H40.4358ZM40.1978 14.09L39.2239 14.3173L39.2257 14.3247L40.1978 14.09ZM39.3138 12.628L38.6999 13.4174L38.7239 13.4361L38.7491 13.4533L39.3138 12.628ZM33.3978 13.818L32.7958 13.0195L32.3978 13.3196V13.818H33.3978ZM33.3978 26.194H32.3978V27.0552L33.2495 27.183L33.3978 26.194ZM35.4378 26.5H36.4378V25.6389L35.5861 25.5111L35.4378 26.5ZM35.4378 28.54V29.54H36.4378V28.54H35.4378ZM26.5638 28.54H25.5638V29.54H26.5638V28.54ZM26.5638 26.5L26.4105 25.5119L25.5638 25.6432V26.5H26.5638ZM28.5358 26.194L28.6891 27.1822L29.5358 27.0508V26.194H28.5358ZM28.5358 12.866L28.8066 11.9034L26.6306 11.2914L26.3598 12.254L26.0891 13.2167L28.2651 13.8287L28.5358 12.866ZM26.3598 12.254H27.3598V9.90804H26.3598H25.3598V12.254H26.3598ZM26.3598 9.90804L26.4853 10.9001L32.1293 10.1861L32.0038 9.19404L31.8783 8.20195L26.2343 8.91595L26.3598 9.90804ZM32.0038 9.19404V10.194H32.1058V9.19404V8.19404H32.0038V9.19404ZM32.1058 9.19404L31.4811 9.97491L32.3311 10.6549L32.9558 9.87404L33.5805 9.09317L32.7305 8.41317L32.1058 9.19404ZM32.9558 9.87404H31.9558V11.2H32.9558H33.9558V9.87404H32.9558ZM32.9558 11.2L31.9567 11.1584L31.9227 11.9744L32.9218 12.016L33.9209 12.0577L33.9549 11.2417L32.9558 11.2ZM32.9218 12.016L33.6078 12.7436C34.2964 12.0944 35.2208 11.5067 36.4097 10.9972L36.0158 10.078L35.6219 9.15889C34.2722 9.73733 33.1338 10.4417 32.2358 11.2884L32.9218 12.016ZM36.0158 10.078L36.4097 10.9972C37.5633 10.5028 38.7104 10.262 39.8578 10.262V9.26204V8.26204C38.4212 8.26204 37.007 8.56527 35.6219 9.15889L36.0158 10.078ZM39.8578 9.26204V10.262C41.1323 10.262 41.9846 10.5051 42.5275 10.8723L43.0878 10.044L43.6481 9.21575C42.6497 8.54034 41.3486 8.26204 39.8578 8.26204V9.26204ZM43.0878 10.044L42.5556 10.8907C43.1062 11.2368 43.5483 11.8103 43.8333 12.7223L44.7878 12.424L45.7423 12.1258C45.3473 10.8618 44.6561 9.84866 43.62 9.1974L43.0878 10.044ZM44.7878 12.424L43.8333 12.7223C44.1302 13.6723 44.2978 15.0313 44.2978 16.844H45.2978H46.2978C46.2978 14.9394 46.1254 13.3517 45.7423 12.1258L44.7878 12.424ZM45.2978 16.844H44.2978V26.228H45.2978H46.2978V16.844H45.2978ZM45.2978 26.228L45.1678 27.2195L47.2418 27.4915L47.3718 26.5L47.5018 25.5085L45.4278 25.2365L45.2978 26.228ZM47.3718 26.5H46.3718V28.54H47.3718H48.3718V26.5H47.3718ZM47.3718 28.54V27.54H38.5998V28.54V29.54H47.3718V28.54ZM38.5998 28.54H39.5998V26.5H38.5998H37.5998V28.54H38.5998ZM38.5998 26.5L38.7464 27.4892L40.5824 27.2172L40.4358 26.228L40.2893 25.2388L38.4533 25.5108L38.5998 26.5ZM40.4358 26.228H41.4358V16.844H40.4358H39.4358V26.228H40.4358ZM40.4358 16.844H41.4358C41.4358 15.6354 41.3559 14.6259 41.1699 13.8554L40.1978 14.09L39.2257 14.3247C39.3571 14.8688 39.4358 15.6953 39.4358 16.844H40.4358ZM40.1978 14.09L41.1716 13.8628C40.9757 13.0231 40.577 12.2807 39.8785 11.8027L39.3138 12.628L38.7491 13.4533C38.9119 13.5648 39.1026 13.7969 39.224 14.3173L40.1978 14.09ZM39.3138 12.628L39.9277 11.8387C39.2765 11.3322 38.4344 11.152 37.5458 11.152V12.152V13.152C38.1986 13.152 38.5351 13.2892 38.6999 13.4174L39.3138 12.628ZM37.5458 12.152V11.152C35.9611 11.152 34.3707 11.8323 32.7958 13.0195L33.3978 13.818L33.9998 14.6166C35.3716 13.5824 36.5465 13.152 37.5458 13.152V12.152ZM33.3978 13.818H32.3978V26.194H33.3978H34.3978V13.818H33.3978ZM33.3978 26.194L33.2495 27.183L35.2895 27.489L35.4378 26.5L35.5861 25.5111L33.5461 25.2051L33.3978 26.194ZM35.4378 26.5H34.4378V28.54H35.4378H36.4378V26.5H35.4378ZM35.4378 28.54V27.54H26.5638V28.54V29.54H35.4378V28.54ZM26.5638 28.54H27.5638V26.5H26.5638H25.5638V28.54H26.5638ZM26.5638 26.5L26.7171 27.4882L28.6891 27.1822L28.5358 26.194L28.3825 25.2059L26.4105 25.5119L26.5638 26.5ZM28.5358 26.194H29.5358V12.866H28.5358H27.5358V26.194H28.5358ZM54.3244 27.86L55.0194 27.1411L54.3244 27.86ZM53.3044 12.254H54.3044V11.254H53.3044V12.254ZM51.0944 12.254H50.0944V13.254H51.0944V12.254ZM51.0944 10.486L50.7433 9.54971L50.0944 9.79304V10.486H51.0944ZM52.0804 10.146L52.3966 11.0947L52.4166 11.088L52.4364 11.0805L52.0804 10.146ZM53.1684 9.70404L53.5822 10.6144L53.6856 10.5674L53.7758 10.4984L53.1684 9.70404ZM54.1544 8.17404L53.2352 7.78012L53.2262 7.80132L53.2181 7.82291L54.1544 8.17404ZM55.2764 4.63804V3.63804H54.5246L54.3157 4.36026L55.2764 4.63804ZM57.9964 4.63804L58.996 4.61084L58.9695 3.63804H57.9964V4.63804ZM58.1324 9.63604L57.1328 9.66324L57.1592 10.636H58.1324V9.63604ZM63.3344 9.63604H64.3344V8.63604H63.3344V9.63604ZM63.3344 12.254V13.254H64.3344V12.254H63.3344ZM58.1664 12.254V11.254H57.1664V12.254H58.1664ZM58.2684 24.494L59.26 24.3647L58.2684 24.494ZM58.7104 25.514L58.1369 26.3333L58.1657 26.3534L58.1959 26.3715L58.7104 25.514ZM61.6684 25.548L61.8505 26.5313L61.868 26.5281L61.8853 26.5242L61.6684 25.548ZM63.1984 25.072L64.1454 24.7507L63.7934 23.7133L62.7922 24.1582L63.1984 25.072ZM63.8444 26.976L64.4444 27.776L65.0243 27.3411L64.7914 26.6547L63.8444 26.976ZM61.0564 28.268L61.3567 29.2219L61.0564 28.268ZM57.4864 28.846V27.846C56.1881 27.846 55.4369 27.5446 55.0194 27.1411L54.3244 27.86L53.6294 28.579C54.5719 29.4901 55.9287 29.846 57.4864 29.846V28.846ZM54.3244 27.86L55.0194 27.1411C54.6147 26.7498 54.3044 26.0259 54.3044 24.732H53.3044H52.3044C52.3044 26.2942 52.6741 27.6556 53.6294 28.579L54.3244 27.86ZM53.3044 24.732H54.3044V12.254H53.3044H52.3044V24.732H53.3044ZM53.3044 12.254V11.254H51.0944V12.254V13.254H53.3044V12.254ZM51.0944 12.254H52.0944V10.486H51.0944H50.0944V12.254H51.0944ZM51.0944 10.486L51.4455 11.4224C51.6073 11.3617 51.9196 11.2537 52.3966 11.0947L52.0804 10.146L51.7642 9.19736C51.2891 9.3557 50.9441 9.47439 50.7433 9.54971L51.0944 10.486ZM52.0804 10.146L52.4364 11.0805C52.9184 10.8969 53.3041 10.7408 53.5822 10.6144L53.1684 9.70404L52.7546 8.79367C52.534 8.89394 52.1944 9.03251 51.7244 9.21155L52.0804 10.146ZM53.1684 9.70404L53.7758 10.4984C54.3744 10.0406 54.7886 9.33081 55.0907 8.52516L54.1544 8.17404L53.2181 7.82291C52.9762 8.46793 52.733 8.7781 52.5609 8.90968L53.1684 9.70404ZM54.1544 8.17404L55.0735 8.56796C55.3071 8.02286 55.6988 6.77718 56.237 4.91582L55.2764 4.63804L54.3157 4.36026C53.766 6.26156 53.4096 7.37322 53.2352 7.78012L54.1544 8.17404ZM55.2764 4.63804V5.63804H57.9964V4.63804V3.63804H55.2764V4.63804ZM57.9964 4.63804L56.9968 4.66524L57.1328 9.66324L58.1324 9.63604L59.132 9.60884L58.996 4.61084L57.9964 4.63804ZM58.1324 9.63604V10.636H63.3344V9.63604V8.63604H58.1324V9.63604ZM63.3344 9.63604H62.3344V12.254H63.3344H64.3344V9.63604H63.3344ZM63.3344 12.254V11.254H58.1664V12.254V13.254H63.3344V12.254ZM58.1664 12.254H57.1664V21.808H58.1664H59.1664V12.254H58.1664ZM58.1664 21.808H57.1664C57.1664 23.0772 57.1995 24.0309 57.2768 24.6234L58.2684 24.494L59.26 24.3647C59.2013 23.9145 59.1664 23.0775 59.1664 21.808H58.1664ZM58.2684 24.494L57.2768 24.6234C57.3516 25.1971 57.5434 25.9178 58.1369 26.3333L58.7104 25.514L59.2838 24.6948C59.3651 24.7517 59.3718 24.7987 59.3474 24.7424C59.3227 24.6854 59.2865 24.5682 59.26 24.3647L58.2684 24.494ZM58.7104 25.514L58.1959 26.3715C58.6753 26.6592 59.3164 26.718 59.9004 26.718V25.718V24.718C59.6528 24.718 59.472 24.7029 59.3468 24.6814C59.2134 24.6585 59.1915 24.6365 59.2249 24.6565L58.7104 25.514ZM59.9004 25.718V26.718C60.5338 26.718 61.1842 26.6547 61.8505 26.5313L61.6684 25.548L61.4863 24.5648C60.9286 24.668 60.4003 24.718 59.9004 24.718V25.718ZM61.6684 25.548L61.8853 26.5242C62.5384 26.3791 63.1168 26.2026 63.6045 25.9859L63.1984 25.072L62.7922 24.1582C62.464 24.3041 62.0223 24.445 61.4515 24.5719L61.6684 25.548ZM63.1984 25.072L62.2514 25.3933L62.8974 27.2973L63.8444 26.976L64.7914 26.6547L64.1454 24.7507L63.1984 25.072ZM63.8444 26.976L63.2444 26.176C62.7387 26.5553 61.9303 26.9445 60.7561 27.3142L61.0564 28.268L61.3567 29.2219C62.6305 28.8209 63.6808 28.3487 64.4444 27.776L63.8444 26.976ZM61.0564 28.268L60.7561 27.3142C59.6187 27.6723 58.53 27.846 57.4864 27.846V28.846V29.846C58.7548 29.846 60.0461 29.6345 61.3567 29.2219L61.0564 28.268ZM69.7613 5.82804L70.4684 5.12093V5.12093L69.7613 5.82804ZM69.8633 1.85004L70.5847 2.54257V2.54257L69.8633 1.85004ZM74.1133 1.74804L73.3899 2.43851L73.398 2.44692L73.4062 2.45514L74.1133 1.74804ZM74.0113 5.72604L74.7184 6.43315V6.43315L74.0113 5.72604ZM69.8973 12.866H70.8973V12.0985L70.1558 11.9L69.8973 12.866ZM67.4833 12.22H66.4833V12.9876L67.2248 13.186L67.4833 12.22ZM67.4833 9.94204L67.3639 8.94919L66.4833 9.05506V9.94204H67.4833ZM73.7053 9.19404V8.19404H73.6454L73.5859 8.20119L73.7053 9.19404ZM73.7733 9.19404L74.3545 8.3803L74.0938 8.19404H73.7733V9.19404ZM74.7253 9.87404H75.7253V9.35942L75.3065 9.0603L74.7253 9.87404ZM74.7253 26.228H73.7253V27.1157L74.6067 27.221L74.7253 26.228ZM77.0033 26.5H78.0033V25.6123L77.1218 25.5071L77.0033 26.5ZM77.0033 28.54V29.54H78.0033V28.54H77.0033ZM67.5173 28.54H66.5173V29.54H67.5173V28.54ZM67.5173 26.5L67.3898 25.5082L66.5173 25.6204V26.5H67.5173ZM69.8973 26.194L70.0248 27.1859L70.8973 27.0737V26.194H69.8973ZM71.6993 6.54204V5.54204C71.0885 5.54204 70.7183 5.37083 70.4684 5.12093L69.7613 5.82804L69.0542 6.53514C69.7563 7.23725 70.6781 7.54204 71.6993 7.54204V6.54204ZM69.7613 5.82804L70.4684 5.12093C70.2016 4.85413 70.0473 4.50712 70.0473 3.99204H69.0473H68.0473C68.0473 4.97296 68.369 5.84994 69.0542 6.53515L69.7613 5.82804ZM69.0473 3.99204H70.0473C70.0473 3.36163 70.2375 2.90425 70.5847 2.54257L69.8633 1.85004L69.1419 1.15751C68.4011 1.92916 68.0473 2.89978 68.0473 3.99204H69.0473ZM69.8633 1.85004L70.5847 2.54257C70.9106 2.20308 71.3591 2.00004 72.0393 2.00004V1.00004V3.69549e-05C70.9061 3.69549e-05 69.904 0.363662 69.1419 1.15751L69.8633 1.85004ZM72.0393 1.00004V2.00004C72.7628 2.00004 73.1569 2.19439 73.3899 2.43851L74.1133 1.74804L74.8366 1.05756C74.1177 0.304354 73.1292 3.69549e-05 72.0393 3.69549e-05V1.00004ZM74.1133 1.74804L73.4062 2.45514C73.6792 2.72814 73.8273 3.06721 73.8273 3.55004H74.8273H75.8273C75.8273 2.5822 75.4994 1.71994 74.8204 1.04093L74.1133 1.74804ZM74.8273 3.55004H73.8273C73.8273 4.24245 73.6274 4.69567 73.3042 5.01893L74.0113 5.72604L74.7184 6.43315C75.4831 5.66841 75.8273 4.67096 75.8273 3.55004H74.8273ZM74.0113 5.72604L73.3042 5.01893C72.9945 5.32861 72.5172 5.54204 71.7333 5.54204V6.54204V7.54204C72.8987 7.54204 73.9401 7.21147 74.7184 6.43315L74.0113 5.72604ZM71.7333 6.54204V5.54204H71.6993V6.54204V7.54204H71.7333V6.54204ZM69.8973 12.866L70.1558 11.9L67.7418 11.254L67.4833 12.22L67.2248 13.186L69.6388 13.832L69.8973 12.866ZM67.4833 12.22H68.4833V9.94204H67.4833H66.4833V12.22H67.4833ZM67.4833 9.94204L67.6026 10.9349L73.8247 10.1869L73.7053 9.19404L73.5859 8.20119L67.3639 8.94919L67.4833 9.94204ZM73.7053 9.19404V10.194H73.7733V9.19404V8.19404H73.7053V9.19404ZM73.7733 9.19404L73.1921 10.0078L74.1441 10.6878L74.7253 9.87404L75.3065 9.0603L74.3545 8.3803L73.7733 9.19404ZM74.7253 9.87404H73.7253V26.228H74.7253H75.7253V9.87404H74.7253ZM74.7253 26.228L74.6067 27.221L76.8847 27.493L77.0033 26.5L77.1218 25.5071L74.8438 25.2351L74.7253 26.228ZM77.0033 26.5H76.0033V28.54H77.0033H78.0033V26.5H77.0033ZM77.0033 28.54V27.54H67.5173V28.54V29.54H77.0033V28.54ZM67.5173 28.54H68.5173V26.5H67.5173H66.5173V28.54H67.5173ZM67.5173 26.5L67.6448 27.4919L70.0248 27.1859L69.8973 26.194L69.7698 25.2022L67.3898 25.5082L67.5173 26.5ZM69.8973 26.194H70.8973V12.866H69.8973H68.8973V26.194H69.8973ZM82.1544 13.988L81.268 13.525L81.2626 13.5355L82.1544 13.988ZM85.5204 10.452L86.0209 11.3178L86.0251 11.3153L85.5204 10.452ZM93.0004 9.36404L92.7978 10.3433L92.7978 10.3433L93.0004 9.36404ZM95.2104 9.90804L94.9428 10.8716L94.9445 10.872L95.2104 9.90804ZM96.1964 10.18L97.1958 10.2151L97.2235 9.42602L96.4623 9.21605L96.1964 10.18ZM95.9924 15.994V16.994H96.9579L96.9918 16.0291L95.9924 15.994ZM93.0344 15.994L92.0593 16.2157L92.2362 16.994H93.0344V15.994ZM92.1844 12.254L93.1595 12.0324L93.1588 12.0292L92.1844 12.254ZM87.1864 13.036L86.3491 12.4892L86.3452 12.4953L86.3413 12.5014L87.1864 13.036ZM86.0984 18.238L85.0984 18.2284V18.238H86.0984ZM87.3904 23.984L86.5497 24.5255L86.5539 24.5321L87.3904 23.984ZM95.5844 24.562L96.4989 24.1575L96.0271 23.0908L95.045 23.72L95.5844 24.562ZM96.3664 26.33L97.0992 27.0105L97.5473 26.5279L97.2809 25.9255L96.3664 26.33ZM93.6464 28.098L93.2402 27.1842L93.2339 27.1871L93.6464 28.098ZM83.1744 26.228L82.3974 26.8575L82.4022 26.8634L83.1744 26.228ZM80.9984 19.19H81.9984C81.9984 17.3751 82.3563 15.7999 83.0462 14.4406L82.1544 13.988L81.2626 13.5355C80.4111 15.2135 79.9984 17.1063 79.9984 19.19H80.9984ZM82.1544 13.988L83.0407 14.4511C83.7484 13.0965 84.7383 12.0593 86.0209 11.3178L85.5204 10.452L85.0199 9.5863C83.4012 10.5221 82.1471 11.8422 81.2681 13.525L82.1544 13.988ZM85.5204 10.452L86.0251 11.3153C87.3246 10.5556 88.8568 10.16 90.6544 10.16V9.16004V8.16004C88.5533 8.16004 86.6629 8.62577 85.0157 9.58874L85.5204 10.452ZM90.6544 9.16004V10.16C91.515 10.16 92.2257 10.2249 92.7978 10.3433L93.0004 9.36404L93.203 8.38478C92.4605 8.23115 91.6071 8.16004 90.6544 8.16004V9.16004ZM93.0004 9.36404L92.7978 10.3433C93.4285 10.4738 94.143 10.6494 94.9428 10.8716L95.2104 9.90804L95.478 8.94452C94.6458 8.71334 93.887 8.52628 93.203 8.38478L93.0004 9.36404ZM95.2104 9.90804L94.9445 10.872L95.9305 11.144L96.1964 10.18L96.4623 9.21605L95.4763 8.94405L95.2104 9.90804ZM96.1964 10.18L95.197 10.145L94.993 15.959L95.9924 15.994L96.9918 16.0291L97.1958 10.2151L96.1964 10.18ZM95.9924 15.994V14.994H93.0344V15.994V16.994H95.9924V15.994ZM93.0344 15.994L94.0095 15.7724L93.1595 12.0324L92.1844 12.254L91.2093 12.4757L92.0593 16.2157L93.0344 15.994ZM92.1844 12.254L93.1588 12.0292C93.0048 11.3619 92.5396 10.9207 91.9842 10.676C91.4667 10.4479 90.8396 10.37 90.1784 10.37V11.37V12.37C90.7185 12.37 91.0265 12.4395 91.1776 12.5061C91.2448 12.5357 91.2549 12.5535 91.243 12.5404C91.2267 12.5225 91.2141 12.4966 91.21 12.4789L92.1844 12.254ZM90.1784 11.37V10.37C88.5535 10.37 87.2491 11.1111 86.3491 12.4892L87.1864 13.036L88.0237 13.5828C88.5743 12.7396 89.2647 12.37 90.1784 12.37V11.37ZM87.1864 13.036L86.3413 12.5014C85.4879 13.8503 85.1217 15.8126 85.0984 18.2284L86.0984 18.238L87.0984 18.2477C87.1205 15.9488 87.4795 14.4431 88.0315 13.5707L87.1864 13.036ZM86.0984 18.238H85.0984C85.0984 20.8233 85.5409 22.9593 86.5497 24.5255L87.3904 23.984L88.2311 23.4426C87.5172 22.3341 87.0984 20.6395 87.0984 18.238H86.0984ZM87.3904 23.984L86.5539 24.5321C87.5781 26.0952 89.0209 26.956 90.8244 26.956V25.956V24.956C89.7719 24.956 88.9254 24.5022 88.2269 23.436L87.3904 23.984ZM90.8244 25.956V26.956C92.7383 26.956 94.5122 26.4365 96.1238 25.4041L95.5844 24.562L95.045 23.72C93.7553 24.5462 92.3558 24.956 90.8244 24.956V25.956ZM95.5844 24.562L94.6699 24.9665L95.4519 26.7345L96.3664 26.33L97.2809 25.9255L96.4989 24.1575L95.5844 24.562ZM96.3664 26.33L95.6336 25.6496C95.1726 26.1461 94.4012 26.6682 93.2403 27.1842L93.6464 28.098L94.0525 29.0119C95.3396 28.4398 96.3815 27.7833 97.0992 27.0105L96.3664 26.33ZM93.6464 28.098L93.2339 27.1871C92.1705 27.6686 91.009 27.914 89.7364 27.914V28.914V29.914C91.2745 29.914 92.7196 29.6155 94.0589 29.009L93.6464 28.098ZM89.7364 28.914V27.914C87.0521 27.914 85.1834 27.0959 83.9466 25.5927L83.1744 26.228L82.4022 26.8634C84.112 28.9415 86.618 29.914 89.7364 29.914V28.914ZM83.1744 26.228L83.9514 25.5986C82.6791 24.028 81.9984 21.9229 81.9984 19.19H80.9984H79.9984C79.9984 22.2599 80.7684 24.8467 82.3974 26.8575L83.1744 26.228Z" fill="black" mask="url(#path-1-outside-1_1_35)"/>
</g>
<defs>
<filter id="filter0_d_1_35" x="0" y="0" width="101.547" height="37.9141" filterUnits="userSpaceOnUse" color-interpolation-filters="sRGB">
<feFlood flood-opacity="0" result="BackgroundImageFix"/>
<feColorMatrix in="SourceAlpha" type="matrix" values="0 0 0 0 0 0 0 0 0 0 0 0 0 0 0 0 0 0 127 0" result="hardAlpha"/>
<feOffset dy="4"/>
<feGaussianBlur stdDeviation="2"/>
<feComposite in2="hardAlpha" operator="out"/>
<feColorMatrix type="matrix" values="0 0 0 0 0 0 0 0 0 0 0 0 0 0 0 0 0 0 0.25 0"/>
<feBlend mode="normal" in2="BackgroundImageFix" result="effect1_dropShadow_1_35"/>
<feBlend mode="normal" in="SourceGraphic" in2="effect1_dropShadow_1_35" result="shape"/>
</filter>
</defs>
</svg>
